<svg id="router" data-name="router-icon" xmlns="http://www.w3.org/2000/svg" viewBox="0 0 300 275"><defs><style>.cls-1{fill:#4152b4;}</style></defs><title>icon</title><path class="cls-1" d="M562.88,609.63l.47-.18-31.72-83.54A20.09,20.09,0,0,0,512.94,513H506.5V388a10,10,0,0,0-20,0V513H424V388a10,10,0,0,0-20,0V513H339V388a10,10,0,0,0-20,0V513h-3.94a20.11,20.11,0,0,0-18.7,12.91l-31.71,83.54.47.18A34.63,34.63,0,0,0,299,653H529a34.63,34.63,0,0,0,33.88-43.37ZM315.06,533H512.93L532,583.31c-1-.09-2-.31-3-.31H299c-1,0-2,.22-3,.31ZM529,633H299a15,15,0,0,1,0-30H529a15,15,0,0,1,0,30Z" transform="translate(-264 -378)"/></svg>